<svg width="810" height="854" viewBox="0 0 810 854" fill="none" xmlns="http://www.w3.org/2000/svg">
<rect x="1.5" y="9.5" width="430.579" height="743.747" rx="8.61852" fill="white" stroke="black" stroke-width="3"/>
<rect x="405.997" y="0.656157" width="432.567" height="745.735" rx="9.6126" transform="rotate(21.5023 405.997 0.656157)" fill="#1B1B1B" stroke="black" stroke-width="1.01185"/>
<path d="M46.0422 98.8062L53.1034 100.941C52.6291 102.921 51.8821 104.575 50.8623 105.903C49.8426 107.231 48.5738 108.233 47.056 108.909C45.5501 109.585 43.6292 109.923 41.2932 109.923C38.4592 109.923 36.1411 109.514 34.3387 108.695C32.5482 107.865 31.0008 106.413 29.6964 104.338C28.3921 102.263 27.7399 99.6066 27.7399 96.3694C27.7399 92.0533 28.8842 88.739 31.1727 86.4268C33.4731 84.1027 36.7221 82.9407 40.9197 82.9407C44.2043 82.9407 46.7833 83.6047 48.6568 84.9327C50.5422 86.2608 51.9414 88.3003 52.8544 91.0513L45.7398 92.6343C45.4908 91.8398 45.23 91.2588 44.9572 90.8912C44.5066 90.2746 43.9553 89.8003 43.3031 89.4683C42.6509 89.1363 41.9217 88.9703 41.1154 88.9703C39.2893 88.9703 37.8901 89.7054 36.9178 91.1758C36.1826 92.2667 35.815 93.9801 35.815 96.3161C35.815 99.2093 36.2537 101.195 37.1312 102.275C38.0087 103.342 39.2419 103.875 40.8308 103.875C42.3723 103.875 43.5343 103.443 44.3169 102.577C45.1114 101.711 45.6865 100.454 46.0422 98.8062ZM63.1528 96.6896L56.2339 95.9603C56.4947 94.7509 56.8682 93.8023 57.3544 93.1145C57.8524 92.4149 58.5639 91.8102 59.4888 91.3003C60.1528 90.9327 61.0658 90.6481 62.2279 90.4465C63.3899 90.245 64.6469 90.1442 65.9986 90.1442C68.1686 90.1442 69.9117 90.2687 71.2278 90.5177C72.544 90.7548 73.6409 91.2588 74.5183 92.0295C75.1349 92.5631 75.6211 93.322 75.9768 94.3062C76.3326 95.2785 76.5104 96.2094 76.5104 97.0987V105.441C76.5104 106.33 76.5638 107.029 76.6705 107.539C76.7891 108.037 77.0381 108.678 77.4175 109.46H70.6231C70.3504 108.974 70.1725 108.607 70.0895 108.358C70.0065 108.097 69.9235 107.693 69.8405 107.148C68.8919 108.061 67.9492 108.713 67.0125 109.105C65.7318 109.626 64.2437 109.887 62.5481 109.887C60.2951 109.887 58.5817 109.365 57.4078 108.322C56.2457 107.278 55.6647 105.992 55.6647 104.462C55.6647 103.028 56.0856 101.848 56.9275 100.923C57.7694 99.9979 59.3228 99.3101 61.5876 98.8595C64.303 98.3141 66.0638 97.9346 66.8702 97.7212C67.6765 97.4959 68.5302 97.2054 69.4314 96.8497C69.4314 95.9603 69.2476 95.3378 68.88 94.9821C68.5124 94.6264 67.8662 94.4485 66.9413 94.4485C65.7555 94.4485 64.8662 94.6382 64.2733 95.0177C63.8109 95.3141 63.4374 95.8714 63.1528 96.6896ZM69.4314 100.496C68.4354 100.852 67.3978 101.166 66.3188 101.439C64.8484 101.83 63.9176 102.215 63.5263 102.595C63.1231 102.986 62.9216 103.431 62.9216 103.929C62.9216 104.498 63.1172 104.966 63.5085 105.334C63.9117 105.69 64.4986 105.867 65.2694 105.867C66.0757 105.867 66.8227 105.672 67.5105 105.28C68.2101 104.889 68.7022 104.415 68.9868 103.858C69.2832 103.288 69.4314 102.553 69.4314 101.652V100.496ZM80.9215 90.571H87.6981V93.6659C88.3503 92.326 89.0202 91.407 89.708 90.909C90.4076 90.3991 91.2673 90.1442 92.287 90.1442C93.3542 90.1442 94.5222 90.4762 95.791 91.1402L93.5499 96.2983C92.6961 95.9426 92.0202 95.7647 91.5222 95.7647C90.5736 95.7647 89.8384 96.156 89.3167 96.9386C88.5697 98.0414 88.1961 100.105 88.1961 103.128V109.46H80.9215V90.571ZM116.921 83.3853V109.46H110.145V106.668C109.196 107.854 108.33 108.654 107.548 109.069C106.504 109.614 105.342 109.887 104.062 109.887C101.489 109.887 99.5202 108.909 98.1566 106.952C96.8048 104.996 96.1289 102.618 96.1289 99.82C96.1289 96.6896 96.8759 94.2943 98.37 92.6343C99.8759 90.9742 101.785 90.1442 104.097 90.1442C105.224 90.1442 106.243 90.3339 107.157 90.7133C108.081 91.0928 108.9 91.6619 109.611 92.4208V83.3853H116.921ZM109.664 99.9623C109.664 98.4801 109.35 97.3773 108.722 96.654C108.093 95.9188 107.299 95.5513 106.338 95.5513C105.496 95.5513 104.791 95.9011 104.222 96.6007C103.653 97.3003 103.368 98.4742 103.368 100.122C103.368 101.664 103.659 102.796 104.24 103.52C104.832 104.231 105.562 104.587 106.427 104.587C107.352 104.587 108.123 104.225 108.74 103.502C109.356 102.778 109.664 101.599 109.664 99.9623ZM120.052 104.231L127.237 103.555C127.534 104.409 127.949 105.02 128.482 105.387C129.016 105.755 129.728 105.939 130.617 105.939C131.589 105.939 132.342 105.731 132.876 105.316C133.291 105.008 133.498 104.622 133.498 104.16C133.498 103.638 133.226 103.235 132.68 102.95C132.289 102.749 131.251 102.5 129.567 102.203C127.054 101.765 125.305 101.362 124.32 100.994C123.348 100.614 122.524 99.9801 121.848 99.0908C121.184 98.2014 120.852 97.1876 120.852 96.0493C120.852 94.8042 121.214 93.7311 121.937 92.8299C122.66 91.9287 123.656 91.2588 124.925 90.8201C126.194 90.3695 127.896 90.1442 130.03 90.1442C132.283 90.1442 133.943 90.3161 135.01 90.66C136.089 91.0038 136.984 91.5374 137.696 92.2608C138.419 92.9841 139.018 93.9623 139.492 95.1955L132.627 95.8714C132.449 95.2667 132.152 94.822 131.737 94.5374C131.168 94.158 130.481 93.9683 129.674 93.9683C128.856 93.9683 128.257 94.1165 127.878 94.4129C127.51 94.6975 127.326 95.0473 127.326 95.4623C127.326 95.9248 127.564 96.2746 128.038 96.5117C128.512 96.7489 129.544 96.9623 131.133 97.152C133.54 97.4248 135.33 97.8042 136.504 98.2904C137.678 98.7765 138.573 99.4702 139.19 100.371C139.818 101.273 140.133 102.263 140.133 103.342C140.133 104.433 139.801 105.494 139.137 106.526C138.484 107.557 137.447 108.381 136.024 108.998C134.613 109.603 132.686 109.905 130.243 109.905C126.793 109.905 124.332 109.413 122.862 108.429C121.403 107.444 120.467 106.045 120.052 104.231ZM172.291 105.156H163.113L161.85 109.46H153.615L163.415 83.3853H172.202L182.002 109.46H173.571L172.291 105.156ZM170.601 99.5176L167.719 90.1442L164.856 99.5176H170.601ZM197.263 90.571H204.039V108.411L204.057 109.247C204.057 110.433 203.802 111.559 203.292 112.626C202.794 113.705 202.124 114.577 201.282 115.241C200.452 115.905 199.391 116.385 198.099 116.682C196.818 116.978 195.348 117.126 193.688 117.126C189.893 117.126 187.285 116.557 185.862 115.419C184.451 114.28 183.745 112.757 183.745 110.848C183.745 110.61 183.757 110.29 183.781 109.887L190.806 110.688C190.984 111.34 191.257 111.79 191.624 112.039C192.158 112.407 192.828 112.591 193.634 112.591C194.678 112.591 195.454 112.312 195.964 111.755C196.486 111.197 196.747 110.225 196.747 108.838V105.974C196.035 106.816 195.324 107.427 194.613 107.806C193.498 108.399 192.294 108.695 191.002 108.695C188.476 108.695 186.437 107.593 184.883 105.387C183.781 103.822 183.229 101.753 183.229 99.1797C183.229 96.239 183.941 93.9979 185.364 92.4564C186.787 90.9149 188.648 90.1442 190.949 90.1442C192.419 90.1442 193.628 90.3932 194.577 90.8912C195.537 91.3892 196.433 92.2133 197.263 93.3635V90.571ZM190.451 99.7311C190.451 101.095 190.741 102.109 191.322 102.773C191.903 103.425 192.668 103.751 193.617 103.751C194.518 103.751 195.271 103.413 195.875 102.737C196.492 102.049 196.8 101.018 196.8 99.6421C196.8 98.2667 196.48 97.2173 195.84 96.4939C195.2 95.7588 194.417 95.3912 193.492 95.3912C192.567 95.3912 191.826 95.7291 191.269 96.405C190.723 97.069 190.451 98.1777 190.451 99.7311ZM215.014 96.6896L208.095 95.9603C208.356 94.7509 208.729 93.8023 209.215 93.1145C209.713 92.4149 210.425 91.8102 211.35 91.3003C212.014 90.9327 212.927 90.6481 214.089 90.4465C215.251 90.245 216.508 90.1442 217.859 90.1442C220.029 90.1442 221.773 90.2687 223.089 90.5177C224.405 90.7548 225.502 91.2588 226.379 92.0295C226.996 92.5631 227.482 93.322 227.838 94.3062C228.193 95.2785 228.371 96.2094 228.371 97.0987V105.441C228.371 106.33 228.425 107.029 228.531 107.539C228.65 108.037 228.899 108.678 229.278 109.46H222.484C222.211 108.974 222.033 108.607 221.95 108.358C221.867 108.097 221.784 107.693 221.701 107.148C220.753 108.061 219.81 108.713 218.873 109.105C217.593 109.626 216.105 109.887 214.409 109.887C212.156 109.887 210.443 109.365 209.269 108.322C208.107 107.278 207.526 105.992 207.526 104.462C207.526 103.028 207.947 101.848 208.788 100.923C209.63 99.9979 211.184 99.3101 213.448 98.8595C216.164 98.3141 217.925 97.9346 218.731 97.7212C219.537 97.4959 220.391 97.2054 221.292 96.8497C221.292 95.9603 221.108 95.3378 220.741 94.9821C220.373 94.6264 219.727 94.4485 218.802 94.4485C217.616 94.4485 216.727 94.6382 216.134 95.0177C215.672 95.3141 215.298 95.8714 215.014 96.6896ZM221.292 100.496C220.296 100.852 219.259 101.166 218.18 101.439C216.709 101.83 215.778 102.215 215.387 102.595C214.984 102.986 214.782 103.431 214.782 103.929C214.782 104.498 214.978 104.966 215.369 105.334C215.773 105.69 216.359 105.867 217.13 105.867C217.937 105.867 218.684 105.672 219.371 105.28C220.071 104.889 220.563 104.415 220.848 103.858C221.144 103.288 221.292 102.553 221.292 101.652V100.496ZM232.978 83.3853H240.217V88.3122H232.978V83.3853ZM232.978 90.571H240.217V109.46H232.978V90.571ZM244.842 90.571H251.583V93.6481C252.591 92.3912 253.61 91.4959 254.642 90.9623C255.674 90.4169 256.93 90.1442 258.413 90.1442C260.417 90.1442 261.982 90.743 263.108 91.9406C264.247 93.1264 264.816 94.9643 264.816 97.4544V109.46H257.541V99.073C257.541 97.8872 257.322 97.0512 256.883 96.5651C256.444 96.0671 255.828 95.8181 255.033 95.8181C254.156 95.8181 253.444 96.1501 252.899 96.8141C252.353 97.4781 252.081 98.6698 252.081 100.389V109.46H244.842V90.571ZM267.857 104.231L275.043 103.555C275.339 104.409 275.754 105.02 276.288 105.387C276.822 105.755 277.533 105.939 278.422 105.939C279.395 105.939 280.148 105.731 280.681 105.316C281.096 105.008 281.304 104.622 281.304 104.16C281.304 103.638 281.031 103.235 280.486 102.95C280.094 102.749 279.057 102.5 277.373 102.203C274.859 101.765 273.11 101.362 272.126 100.994C271.154 100.614 270.33 99.9801 269.654 99.0908C268.99 98.2014 268.658 97.1876 268.658 96.0493C268.658 94.8042 269.019 93.7311 269.743 92.8299C270.466 91.9287 271.462 91.2588 272.731 90.8201C274 90.3695 275.701 90.1442 277.835 90.1442C280.088 90.1442 281.748 90.3161 282.816 90.66C283.895 91.0038 284.79 91.5374 285.501 92.2608C286.225 92.9841 286.824 93.9623 287.298 95.1955L280.432 95.8714C280.254 95.2667 279.958 94.822 279.543 94.5374C278.974 94.158 278.286 93.9683 277.48 93.9683C276.662 93.9683 276.063 94.1165 275.683 94.4129C275.316 94.6975 275.132 95.0473 275.132 95.4623C275.132 95.9248 275.369 96.2746 275.843 96.5117C276.318 96.7489 277.349 96.9623 278.938 97.152C281.345 97.4248 283.136 97.8042 284.31 98.2904C285.484 98.7765 286.379 99.4702 286.995 100.371C287.624 101.273 287.938 102.263 287.938 103.342C287.938 104.433 287.606 105.494 286.942 106.526C286.29 107.557 285.252 108.381 283.829 108.998C282.418 109.603 280.492 109.905 278.049 109.905C274.598 109.905 272.138 109.413 270.668 108.429C269.209 107.444 268.272 106.045 267.857 104.231ZM300.14 83.3853V90.571H304.124V95.8536H300.14V102.559C300.14 103.365 300.217 103.899 300.371 104.16C300.608 104.563 301.023 104.765 301.616 104.765C302.15 104.765 302.897 104.61 303.857 104.302L304.391 109.3C302.6 109.691 300.928 109.887 299.375 109.887C297.572 109.887 296.244 109.656 295.391 109.193C294.537 108.731 293.903 108.031 293.488 107.095C293.084 106.146 292.883 104.616 292.883 102.506V95.8536H290.215V90.571H292.883V87.1027L300.14 83.3853ZM28.7182 134.385H36.7755V143.51H45.5798V134.385H53.6726V160.46H45.5798V149.913H36.7755V160.46H28.7182V134.385ZM78.4492 160.46H71.6903V157.401C70.6824 158.658 69.6626 159.553 68.631 160.087C67.6113 160.62 66.3544 160.887 64.8603 160.887C62.8682 160.887 61.303 160.294 60.1647 159.109C59.0382 157.911 58.475 156.073 58.475 153.595V141.571H65.7496V151.958C65.7496 153.144 65.969 153.986 66.4077 154.484C66.8464 154.982 67.463 155.231 68.2575 155.231C69.1231 155.231 69.8286 154.899 70.3741 154.235C70.9314 153.571 71.2101 152.379 71.2101 150.66V141.571H78.4492V160.46ZM82.8958 141.571H89.6546V144.328C90.627 143.178 91.6052 142.36 92.5894 141.873C93.5854 141.387 94.7831 141.144 96.1823 141.144C97.6882 141.144 98.8799 141.411 99.7573 141.945C100.635 142.478 101.352 143.273 101.91 144.328C103.048 143.095 104.085 142.259 105.022 141.82C105.959 141.369 107.115 141.144 108.49 141.144C110.518 141.144 112.101 141.749 113.239 142.958C114.378 144.156 114.947 146.035 114.947 148.597V160.46H107.69V149.699C107.69 148.846 107.524 148.211 107.192 147.796C106.706 147.144 106.101 146.818 105.378 146.818C104.524 146.818 103.836 147.126 103.315 147.743C102.793 148.36 102.532 149.35 102.532 150.713V160.46H95.2752V150.055C95.2752 149.225 95.2277 148.662 95.1329 148.365C94.9787 147.891 94.7119 147.512 94.3325 147.227C93.953 146.931 93.5084 146.782 92.9985 146.782C92.1685 146.782 91.4866 147.097 90.953 147.725C90.4194 148.354 90.1527 149.385 90.1527 150.82V160.46H82.8958V141.571ZM125.868 147.69L118.949 146.96C119.21 145.751 119.583 144.802 120.069 144.115C120.568 143.415 121.279 142.81 122.204 142.3C122.868 141.933 123.781 141.648 124.943 141.447C126.105 141.245 127.362 141.144 128.714 141.144C130.884 141.144 132.627 141.269 133.943 141.518C135.259 141.755 136.356 142.259 137.233 143.03C137.85 143.563 138.336 144.322 138.692 145.306C139.048 146.279 139.226 147.209 139.226 148.099V156.441C139.226 157.33 139.279 158.029 139.386 158.539C139.504 159.037 139.753 159.678 140.133 160.46H133.338C133.065 159.974 132.888 159.607 132.805 159.358C132.722 159.097 132.639 158.693 132.556 158.148C131.607 159.061 130.664 159.713 129.728 160.105C128.447 160.626 126.959 160.887 125.263 160.887C123.01 160.887 121.297 160.365 120.123 159.322C118.961 158.278 118.38 156.992 118.38 155.462C118.38 154.028 118.801 152.848 119.643 151.923C120.485 150.998 122.038 150.31 124.303 149.86C127.018 149.314 128.779 148.935 129.585 148.721C130.392 148.496 131.245 148.205 132.146 147.85C132.146 146.96 131.963 146.338 131.595 145.982C131.228 145.626 130.581 145.448 129.656 145.448C128.471 145.448 127.581 145.638 126.988 146.018C126.526 146.314 126.152 146.871 125.868 147.69ZM132.146 151.496C131.15 151.852 130.113 152.166 129.034 152.439C127.564 152.83 126.633 153.215 126.241 153.595C125.838 153.986 125.637 154.431 125.637 154.929C125.637 155.498 125.832 155.966 126.224 156.334C126.627 156.69 127.214 156.867 127.984 156.867C128.791 156.867 129.538 156.672 130.226 156.28C130.925 155.889 131.417 155.415 131.702 154.858C131.998 154.288 132.146 153.553 132.146 152.652V151.496ZM143.565 141.571H150.306V144.648C151.314 143.391 152.334 142.496 153.366 141.962C154.397 141.417 155.654 141.144 157.136 141.144C159.14 141.144 160.706 141.743 161.832 142.941C162.97 144.126 163.54 145.964 163.54 148.454V160.46H156.265V150.073C156.265 148.887 156.046 148.051 155.607 147.565C155.168 147.067 154.552 146.818 153.757 146.818C152.88 146.818 152.168 147.15 151.623 147.814C151.077 148.478 150.805 149.67 150.805 151.389V160.46H143.565V141.571ZM168.129 134.385H175.368V139.312H168.129V134.385ZM168.129 141.571H175.368V160.46H168.129V141.571ZM188.725 134.385V141.571H192.709V146.854H188.725V153.559C188.725 154.365 188.802 154.899 188.956 155.16C189.194 155.563 189.609 155.765 190.202 155.765C190.735 155.765 191.482 155.61 192.443 155.302L192.976 160.3C191.186 160.691 189.514 160.887 187.96 160.887C186.158 160.887 184.83 160.656 183.976 160.193C183.123 159.731 182.488 159.031 182.073 158.095C181.67 157.146 181.468 155.616 181.468 153.506V146.854H178.8V141.571H181.468V138.103L188.725 134.385ZM194.079 141.571H201.727L205.622 154.146L209.233 141.571H216.365L208.877 161.759C208.024 164.059 207.152 165.612 206.263 166.419C205.006 167.557 203.091 168.126 200.518 168.126C199.474 168.126 197.862 167.984 195.68 167.699L195.111 162.648C196.154 162.98 197.316 163.146 198.597 163.146C199.45 163.146 200.138 162.95 200.66 162.559C201.194 162.168 201.644 161.468 202.012 160.46L194.079 141.571Z" fill="black"/>
<path d="M415.265 101.363L421.053 105.937C419.886 107.605 418.584 108.87 417.149 109.732C415.713 110.594 414.166 111.061 412.506 111.134C410.857 111.211 408.946 110.821 406.772 109.965C404.136 108.926 402.129 107.696 400.752 106.274C399.39 104.845 398.483 102.927 398.03 100.518C397.577 98.1091 397.944 95.3988 399.13 92.387C400.712 88.3712 402.992 85.707 405.968 84.3945C408.961 83.0754 412.409 83.1851 416.315 84.7237C419.371 85.9276 421.527 87.4907 422.783 89.4131C424.051 91.3397 424.605 93.7502 424.446 96.6444L417.246 95.5094C417.306 94.679 417.276 94.0428 417.157 93.6008C416.964 92.862 416.625 92.2186 416.14 91.6706C415.655 91.1226 415.037 90.7009 414.287 90.4054C412.588 89.736 411.016 89.9072 409.573 90.9188C408.489 91.6643 407.519 93.1237 406.663 95.2971C405.602 97.989 405.282 99.9978 405.703 101.323C406.129 102.638 407.08 103.586 408.559 104.169C409.993 104.734 411.233 104.757 412.278 104.239C413.335 103.724 414.33 102.766 415.265 101.363ZM431.961 105.665L425.791 102.45C426.477 101.421 427.172 100.675 427.877 100.213C428.596 99.745 429.48 99.4432 430.527 99.3078C431.28 99.2092 432.234 99.2791 433.389 99.5174C434.544 99.7558 435.75 100.123 437.008 100.618C439.027 101.414 440.603 102.168 441.736 102.882C442.874 103.586 443.71 104.456 444.244 105.495C444.622 106.218 444.796 107.102 444.766 108.148C444.741 109.183 444.565 110.114 444.239 110.942L441.181 118.703C440.855 119.53 440.649 120.201 440.561 120.714C440.489 121.221 440.486 121.908 440.552 122.775L434.23 120.285C434.155 119.733 434.124 119.326 434.138 119.063C434.157 118.79 434.227 118.385 434.35 117.847C433.133 118.349 432.016 118.61 431.002 118.631C429.619 118.647 428.139 118.344 426.561 117.722C424.465 116.897 423.062 115.783 422.352 114.382C421.653 112.985 421.584 111.575 422.145 110.152C422.671 108.817 423.495 107.874 424.617 107.322C425.74 106.77 427.437 106.699 429.709 107.11C432.436 107.598 434.213 107.89 435.042 107.987C435.874 108.073 436.775 108.116 437.744 108.115C438.07 107.288 438.127 106.641 437.916 106.176C437.704 105.71 437.168 105.308 436.307 104.969C435.204 104.534 434.307 104.384 433.616 104.52C433.077 104.626 432.526 105.008 431.961 105.665ZM436.408 111.508C435.35 111.474 434.27 111.386 433.166 111.244C431.655 111.069 430.647 111.086 430.144 111.296C429.626 111.512 429.275 111.852 429.092 112.316C428.884 112.845 428.894 113.353 429.124 113.838C429.368 114.317 429.849 114.697 430.566 114.98C431.316 115.275 432.083 115.367 432.867 115.255C433.661 115.148 434.293 114.887 434.762 114.472C435.246 114.052 435.653 113.422 435.984 112.583L436.408 111.508ZM450.736 106.485L457.041 108.969L455.906 111.849C457.004 110.841 457.964 110.231 458.787 110.02C459.625 109.802 460.518 109.88 461.467 110.254C462.46 110.645 463.425 111.382 464.362 112.465L460.386 116.443C459.722 115.799 459.158 115.386 458.695 115.203C457.812 114.855 456.985 114.95 456.213 115.487C455.113 116.239 454.01 118.022 452.901 120.835L450.58 126.726L443.812 124.06L450.736 106.485ZM486.864 112.995L477.306 137.255L471.001 134.771L472.025 132.173C470.708 132.929 469.609 133.356 468.729 133.455C467.558 133.58 466.377 133.408 465.185 132.939C462.791 131.996 461.319 130.364 460.767 128.044C460.226 125.728 460.469 123.268 461.495 120.665C462.642 117.752 464.215 115.797 466.214 114.8C468.223 113.808 470.304 113.735 472.455 114.583C473.503 114.996 474.382 115.546 475.093 116.234C475.814 116.926 476.367 117.755 476.751 118.722L480.062 110.315L486.864 112.995ZM474.036 125.758C474.579 124.379 474.691 123.238 474.372 122.335C474.056 121.42 473.452 120.787 472.558 120.435C471.775 120.126 470.99 120.193 470.204 120.636C469.418 121.078 468.723 122.066 468.119 123.599C467.554 125.034 467.409 126.194 467.685 127.08C467.976 127.959 468.524 128.557 469.329 128.874C470.19 129.213 471.039 129.159 471.878 128.712C472.717 128.265 473.436 127.281 474.036 125.758ZM482.136 133.537L489.069 135.542C489.032 136.445 489.194 137.166 489.556 137.703C489.918 138.241 490.512 138.672 491.34 138.998C492.244 139.355 493.021 139.438 493.67 139.247C494.169 139.112 494.503 138.83 494.673 138.4C494.864 137.914 494.758 137.439 494.355 136.975C494.064 136.644 493.19 136.032 491.732 135.139C489.554 133.809 488.075 132.793 487.294 132.09C486.528 131.381 485.994 130.488 485.691 129.413C485.399 128.342 485.462 127.277 485.879 126.218C486.336 125.06 487.066 124.194 488.069 123.621C489.072 123.047 490.244 122.789 491.586 122.846C492.931 122.892 494.597 123.306 496.583 124.088C498.679 124.914 500.161 125.682 501.027 126.394C501.905 127.109 502.543 127.934 502.939 128.867C503.347 129.805 503.546 130.935 503.535 132.256L496.9 130.369C496.956 129.741 496.843 129.218 496.561 128.802C496.171 128.24 495.6 127.811 494.85 127.516C494.089 127.216 493.477 127.134 493.016 127.271C492.569 127.401 492.27 127.659 492.118 128.045C491.949 128.476 492.041 128.888 492.395 129.282C492.75 129.677 493.631 130.254 495.04 131.013C497.18 132.149 498.707 133.158 499.621 134.04C500.535 134.923 501.113 135.897 501.357 136.961C501.611 138.03 501.541 139.066 501.145 140.07C500.745 141.085 500.047 141.951 499.051 142.667C498.066 143.388 496.799 143.775 495.249 143.827C493.715 143.872 491.811 143.447 489.538 142.552C486.328 141.287 484.219 139.927 483.212 138.473C482.216 137.022 481.857 135.377 482.136 133.537ZM530.4 153.545L521.861 150.181L519.108 153.723L511.446 150.705L530.122 130.037L538.297 133.257L537.858 161.11L530.014 158.019L530.4 153.545ZM530.894 147.68L531.649 137.903L525.549 145.574L530.894 147.68ZM558.98 149.129L565.285 151.613L558.746 168.211L558.456 168.995C558.022 170.098 557.371 171.053 556.506 171.859C555.647 172.68 554.704 173.246 553.678 173.555C552.662 173.869 551.498 173.926 550.187 173.728C548.887 173.535 547.465 173.134 545.92 172.525C542.39 171.135 540.171 169.649 539.265 168.068C538.369 166.492 538.271 164.816 538.971 163.039C539.058 162.819 539.186 162.525 539.356 162.159L545.599 165.479C545.526 166.151 545.614 166.67 545.865 167.036C546.227 167.574 546.783 167.99 547.533 168.286C548.504 168.668 549.329 168.694 550.007 168.362C550.697 168.035 551.296 167.226 551.805 165.935L552.854 163.271C551.884 163.793 550.998 164.101 550.197 164.193C548.943 164.336 547.714 164.171 546.512 163.697C544.162 162.771 542.668 160.998 542.032 158.376C541.579 156.516 541.825 154.388 542.768 151.994C543.846 149.258 545.329 147.434 547.218 146.521C549.107 145.609 551.121 145.574 553.262 146.417C554.63 146.956 555.664 147.631 556.364 148.442C557.075 149.258 557.606 150.353 557.956 151.727L558.98 149.129ZM549.284 155.154C548.785 156.423 548.683 157.473 548.98 158.304C549.282 159.123 549.874 159.707 550.757 160.055C551.595 160.385 552.42 160.347 553.23 159.939C554.056 159.526 554.721 158.679 555.225 157.399C555.729 156.119 555.816 155.026 555.485 154.118C555.159 153.199 554.565 152.57 553.705 152.231C552.844 151.892 552.031 151.935 551.265 152.36C550.514 152.778 549.854 153.709 549.284 155.154ZM573.253 161.328L567.083 158.113C567.769 157.084 568.464 156.338 569.168 155.876C569.888 155.408 570.772 155.106 571.819 154.971C572.572 154.872 573.526 154.942 574.681 155.18C575.836 155.419 577.042 155.786 578.3 156.281C580.319 157.076 581.895 157.831 583.028 158.545C584.166 159.248 585.002 160.119 585.535 161.158C585.914 161.881 586.088 162.765 586.058 163.811C586.033 164.846 585.857 165.777 585.531 166.605L582.473 174.366C582.147 175.193 581.94 175.864 581.853 176.377C581.781 176.884 581.778 177.571 581.844 178.438L575.522 175.948C575.447 175.396 575.416 174.988 575.43 174.726C575.448 174.453 575.519 174.048 575.642 173.51C574.424 174.012 573.308 174.273 572.293 174.293C570.911 174.31 569.43 174.007 567.853 173.385C565.757 172.559 564.354 171.446 563.644 170.045C562.945 168.648 562.876 167.238 563.437 165.815C563.963 164.48 564.787 163.537 565.909 162.985C567.031 162.433 568.729 162.362 571.001 162.773C573.728 163.261 575.505 163.553 576.333 163.65C577.166 163.736 578.067 163.779 579.036 163.778C579.362 162.951 579.419 162.304 579.207 161.838C578.996 161.373 578.46 160.97 577.599 160.631C576.496 160.197 575.599 160.047 574.908 160.183C574.369 160.289 573.817 160.671 573.253 161.328ZM577.699 167.171C576.642 167.136 575.562 167.049 574.458 166.907C572.946 166.732 571.939 166.749 571.436 166.959C570.917 167.175 570.567 167.515 570.384 167.978C570.176 168.508 570.186 169.015 570.415 169.501C570.66 169.98 571.141 170.36 571.858 170.643C572.608 170.938 573.375 171.03 574.158 170.918C574.953 170.81 575.584 170.55 576.053 170.135C576.538 169.714 576.945 169.085 577.276 168.246L577.699 167.171ZM594.843 155.534L601.579 158.188L599.773 162.772L593.038 160.118L594.843 155.534ZM592.21 162.22L598.945 164.873L592.021 182.448L585.286 179.794L592.21 162.22ZM603.247 166.568L609.519 169.039L608.392 171.902C609.79 171.102 611.067 170.643 612.222 170.524C613.382 170.395 614.651 170.602 616.03 171.145C617.895 171.88 619.132 173.011 619.741 174.538C620.365 176.058 620.221 177.977 619.308 180.294L614.908 191.464L608.14 188.798L611.947 179.133C612.381 178.03 612.484 177.172 612.254 176.559C612.028 175.935 611.546 175.477 610.807 175.186C609.99 174.864 609.207 174.912 608.456 175.33C607.705 175.748 607.014 176.757 606.384 178.356L603.059 186.796L596.324 184.143L603.247 166.568ZM619.654 187.714L626.588 189.719C626.551 190.622 626.713 191.342 627.075 191.88C627.436 192.417 628.031 192.849 628.858 193.175C629.763 193.531 630.54 193.614 631.188 193.424C631.687 193.289 632.022 193.006 632.191 192.576C632.382 192.091 632.276 191.616 631.873 191.151C631.583 190.82 630.709 190.208 629.251 189.315C627.073 187.985 625.594 186.969 624.813 186.266C624.047 185.557 623.513 184.665 623.21 183.59C622.918 182.519 622.981 181.454 623.398 180.395C623.854 179.236 624.584 178.37 625.588 177.797C626.591 177.224 627.763 176.966 629.104 177.022C630.45 177.068 632.116 177.482 634.102 178.265C636.198 179.09 637.679 179.859 638.546 180.57C639.424 181.285 640.061 182.11 640.458 183.044C640.866 183.982 641.065 185.112 641.054 186.433L634.418 184.545C634.475 183.917 634.362 183.395 634.08 182.978C633.689 182.416 633.119 181.988 632.369 181.692C631.608 181.392 630.996 181.311 630.534 181.447C630.088 181.577 629.789 181.836 629.637 182.222C629.467 182.652 629.56 183.064 629.914 183.459C630.269 183.853 631.15 184.43 632.559 185.189C634.699 186.325 636.225 187.334 637.139 188.217C638.053 189.1 638.632 190.073 638.875 191.138C639.13 192.206 639.059 193.243 638.664 194.247C638.264 195.262 637.566 196.127 636.57 196.844C635.585 197.565 634.318 197.951 632.768 198.003C631.233 198.049 629.33 197.624 627.057 196.728C623.847 195.464 621.738 194.104 620.73 192.649C619.734 191.199 619.376 189.554 619.654 187.714ZM657.331 180.151L654.697 186.837L658.404 188.297L656.468 193.212L652.761 191.752L650.303 197.991C650.007 198.741 649.883 199.266 649.931 199.565C650.004 200.027 650.316 200.367 650.868 200.584C651.364 200.78 652.116 200.91 653.123 200.975L651.787 205.821C649.978 205.529 648.351 205.098 646.905 204.529C645.228 203.868 644.077 203.166 643.453 202.423C642.828 201.68 642.494 200.796 642.451 199.772C642.424 198.742 642.797 197.245 643.571 195.281L646.009 189.092L643.527 188.114L645.463 183.199L647.945 184.177L649.216 180.95L657.331 180.151ZM386.106 128.116L393.603 131.069L390.258 139.558L398.45 142.785L401.794 134.296L409.324 137.262L399.766 161.523L392.237 158.556L396.103 148.743L387.911 145.516L384.045 155.329L376.549 152.376L386.106 128.116ZM422.818 170.604L416.53 168.127L417.651 165.28C416.253 166.08 414.976 166.54 413.82 166.658C412.676 166.781 411.409 166.568 410.019 166.02C408.165 165.29 406.926 164.165 406.302 162.644C405.693 161.117 405.842 159.201 406.751 156.895L411.158 145.708L417.926 148.375L414.119 158.039C413.684 159.142 413.58 160.006 413.806 160.63C414.031 161.254 414.514 161.712 415.253 162.003C416.058 162.321 416.836 162.27 417.587 161.852C418.349 161.439 419.045 160.432 419.675 158.832L423.007 150.376L429.742 153.03L422.818 170.604ZM433.879 154.659L440.168 157.137L439.157 159.702C440.483 158.988 441.693 158.585 442.787 158.494C443.892 158.407 445.096 158.619 446.397 159.132C447.799 159.684 448.81 160.369 449.43 161.187C450.051 162.005 450.427 163.008 450.559 164.194C452.07 163.464 453.342 163.066 454.374 163.001C455.411 162.925 456.569 163.14 457.849 163.644C459.736 164.387 460.987 165.53 461.603 167.072C462.223 168.604 462.063 170.561 461.125 172.944L456.776 183.982L450.024 181.322L453.969 171.31C454.281 170.516 454.36 169.865 454.203 169.357C453.989 168.572 453.546 168.047 452.873 167.782C452.079 167.469 451.326 167.504 450.615 167.886C449.903 168.269 449.298 169.094 448.798 170.363L445.225 179.431L438.473 176.772L442.287 167.091C442.591 166.318 442.754 165.777 442.774 165.466C442.805 164.969 442.695 164.518 442.447 164.114C442.202 163.699 441.843 163.398 441.369 163.211C440.596 162.907 439.847 162.949 439.12 163.339C438.393 163.728 437.767 164.59 437.241 165.925L433.707 174.894L426.956 172.234L433.879 154.659ZM471.618 176.103L465.448 172.888C466.134 171.859 466.829 171.113 467.533 170.651C468.253 170.183 469.137 169.881 470.184 169.746C470.937 169.647 471.891 169.717 473.046 169.955C474.201 170.194 475.407 170.561 476.665 171.056C478.684 171.852 480.26 172.606 481.393 173.321C482.531 174.024 483.367 174.894 483.9 175.933C484.279 176.656 484.453 177.54 484.423 178.586C484.398 179.621 484.222 180.552 483.896 181.38L480.838 189.141C480.512 189.968 480.306 190.639 480.218 191.152C480.146 191.659 480.143 192.346 480.209 193.214L473.887 190.723C473.812 190.171 473.781 189.764 473.795 189.501C473.813 189.228 473.884 188.823 474.007 188.285C472.789 188.787 471.673 189.048 470.658 189.069C469.276 189.085 467.795 188.782 466.218 188.16C464.122 187.335 462.719 186.221 462.009 184.82C461.31 183.423 461.241 182.013 461.802 180.59C462.328 179.255 463.152 178.312 464.274 177.76C465.397 177.208 467.094 177.137 469.366 177.548C472.093 178.036 473.87 178.328 474.698 178.425C475.531 178.511 476.432 178.554 477.401 178.553C477.727 177.726 477.784 177.079 477.572 176.614C477.361 176.148 476.825 175.746 475.964 175.407C474.861 174.972 473.964 174.822 473.273 174.958C472.734 175.065 472.183 175.446 471.618 176.103ZM476.064 181.946C475.007 181.912 473.927 181.824 472.823 181.682C471.311 181.507 470.304 181.524 469.801 181.734C469.282 181.95 468.932 182.29 468.749 182.754C468.541 183.283 468.551 183.791 468.78 184.276C469.025 184.755 469.506 185.135 470.223 185.418C470.973 185.713 471.74 185.805 472.523 185.693C473.318 185.586 473.949 185.325 474.418 184.91C474.903 184.49 475.31 183.86 475.641 183.021L476.064 181.946ZM490.326 176.897L496.598 179.368L495.47 182.231C496.869 181.431 498.146 180.972 499.301 180.853C500.461 180.724 501.73 180.931 503.109 181.474C504.974 182.209 506.211 183.34 506.82 184.867C507.444 186.387 507.3 188.306 506.387 190.623L501.987 201.793L495.218 199.127L499.026 189.462C499.46 188.359 499.563 187.501 499.333 186.888C499.107 186.264 498.625 185.806 497.885 185.515C497.069 185.193 496.285 185.241 495.535 185.659C494.784 186.077 494.093 187.086 493.463 188.685L490.138 197.125L483.403 194.472L490.326 176.897ZM515.814 179.215L522.549 181.868L520.743 186.452L514.008 183.799L515.814 179.215ZM513.18 185.9L519.915 188.554L512.992 206.128L506.256 203.475L513.18 185.9ZM534.977 186.764L532.343 193.45L536.05 194.91L534.114 199.825L530.407 198.365L527.949 204.604C527.654 205.354 527.53 205.879 527.578 206.178C527.65 206.64 527.963 206.98 528.514 207.197C529.011 207.392 529.762 207.523 530.769 207.588L529.433 212.434C527.624 212.142 525.997 211.711 524.552 211.141C522.875 210.481 521.724 209.779 521.099 209.036C520.474 208.292 520.14 207.409 520.098 206.385C520.07 205.355 520.443 203.858 521.217 201.894L523.655 195.705L521.173 194.727L523.109 189.812L525.591 190.79L526.863 187.563L534.977 186.764ZM537.324 195.412L544.44 198.216L543.455 211.343L551.424 200.967L558.06 203.581L543.693 219.619C542.056 221.446 540.675 222.572 539.552 222.997C537.966 223.595 535.975 223.423 533.581 222.479C532.611 222.097 531.162 221.373 529.237 220.309L530.559 215.401C531.408 216.092 532.428 216.672 533.62 217.142C534.414 217.455 535.126 217.525 535.754 217.352C536.394 217.183 537.07 216.698 537.781 215.895L537.324 195.412ZM567.026 218.622L560.738 216.145L560.986 215.516C561.407 214.446 561.87 213.627 562.373 213.061C562.881 212.484 563.481 212.013 564.173 211.648C564.875 211.288 566.339 210.743 568.564 210.013C569.744 209.637 570.454 209.146 570.693 208.539C570.932 207.932 570.935 207.392 570.701 206.917C570.483 206.436 570.009 206.052 569.281 205.765C568.498 205.457 567.745 205.46 567.022 205.774C566.31 206.092 565.628 206.869 564.976 208.103L558.869 204.779C560.019 202.505 561.622 200.944 563.676 200.097C565.746 199.243 568.325 199.424 571.415 200.641C573.82 201.589 575.564 202.856 576.646 204.442C578.12 206.59 578.411 208.795 577.52 211.056C577.15 211.994 576.535 212.797 575.673 213.464C574.811 214.131 573.332 214.779 571.237 215.406C569.775 215.85 568.789 216.283 568.278 216.706C567.783 217.123 567.365 217.762 567.026 218.622ZM559.864 217.731L566.6 220.385L564.259 226.326L557.524 223.672L559.864 217.731ZM595.032 210.423L604.895 214.309L602.886 230.57L612.491 217.301L622.32 221.174L612.763 245.434L606.64 243.022L613.929 224.521L601.891 241.151L596.347 238.967L598.903 218.601L591.614 237.102L585.474 234.684L595.032 210.423ZM619.73 238.085C620.786 235.404 622.56 233.554 625.052 232.535C627.548 231.505 630.335 231.596 633.413 232.808C636.932 234.195 639.189 236.263 640.183 239.012C640.981 241.225 640.906 243.534 639.959 245.94C638.894 248.642 637.121 250.506 634.64 251.529C632.175 252.546 629.359 252.431 626.193 251.184C623.369 250.071 621.367 248.454 620.189 246.333C618.749 243.714 618.596 240.965 619.73 238.085ZM626.488 240.728C625.871 242.295 625.729 243.577 626.063 244.575C626.407 245.578 627.059 246.268 628.019 246.646C628.99 247.028 629.93 246.972 630.839 246.476C631.759 245.985 632.54 244.922 633.184 243.29C633.783 241.767 633.914 240.512 633.577 239.526C633.244 238.528 632.614 237.846 631.687 237.481C630.705 237.094 629.744 237.155 628.804 237.664C627.869 238.163 627.097 239.184 626.488 240.728ZM646.71 238.506L653.015 240.99L651.881 243.869C652.979 242.861 653.939 242.252 654.762 242.041C655.599 241.823 656.493 241.901 657.441 242.274C658.434 242.666 659.399 243.403 660.336 244.486L656.361 248.463C655.697 247.819 655.133 247.406 654.67 247.223C653.787 246.876 652.96 246.97 652.187 247.507C651.088 248.259 649.984 250.042 648.876 252.855L646.555 258.747L639.787 256.08L646.71 238.506ZM677.094 262.557L663.59 257.238C663.286 258.367 663.261 259.287 663.516 259.999C663.867 261.017 664.566 261.732 665.614 262.145C666.276 262.406 666.97 262.488 667.696 262.392C668.143 262.326 668.68 262.11 669.308 261.746L675.703 264.973C673.992 266.338 672.268 267.124 670.53 267.331C668.795 267.528 666.588 267.098 663.907 266.041C661.579 265.124 659.876 264.077 658.798 262.901C657.724 261.713 657.025 260.233 656.704 258.463C656.397 256.685 656.624 254.831 657.385 252.9C658.467 250.153 660.22 248.276 662.643 247.268C665.078 246.264 667.845 246.373 670.945 247.594C673.461 248.585 675.296 249.748 676.453 251.083C677.609 252.418 678.283 253.958 678.475 255.703C678.667 257.448 678.307 259.479 677.394 261.796L677.094 262.557ZM671.514 256.631C671.895 255.277 671.909 254.206 671.557 253.417C671.216 252.633 670.582 252.058 669.655 251.693C668.585 251.272 667.563 251.36 666.588 251.957C665.971 252.326 665.401 253.013 664.878 254.017L671.514 256.631ZM367.164 175.468L373.916 178.128L364.359 202.389L357.607 199.729L367.164 175.468ZM378.467 179.921L385.202 182.575L383.396 187.158L376.661 184.505L378.467 179.921ZM375.833 186.607L382.568 189.26L375.645 206.835L368.91 204.181L375.833 186.607ZM389.505 184.27L396.389 186.982L391.46 199.492L398.786 195.649L407.077 198.915L398.347 202.588L400.517 216.633L392.922 213.641L392.141 205.19L388.631 206.674L386.832 211.242L379.947 208.53L389.505 184.27ZM424.867 218.006L411.363 212.686C411.059 213.815 411.034 214.736 411.289 215.448C411.64 216.465 412.339 217.181 413.387 217.593C414.049 217.854 414.743 217.936 415.469 217.84C415.916 217.774 416.453 217.559 417.081 217.194L423.476 220.421C421.765 221.786 420.041 222.573 418.303 222.78C416.568 222.976 414.361 222.546 411.68 221.49C409.352 220.573 407.649 219.526 406.571 218.349C405.496 217.161 404.798 215.682 404.477 213.911C404.17 212.133 404.397 210.279 405.158 208.349C406.24 205.602 407.993 203.724 410.416 202.716C412.851 201.713 415.618 201.821 418.718 203.043C421.233 204.034 423.069 205.197 424.226 206.532C425.382 207.867 426.056 209.407 426.248 211.152C426.44 212.897 426.08 214.928 425.167 217.245L424.867 218.006ZM419.287 212.08C419.668 210.726 419.682 209.655 419.33 208.866C418.989 208.082 418.355 207.507 417.428 207.142C416.358 206.72 415.336 206.808 414.361 207.406C413.744 207.774 413.174 208.461 412.651 209.466L419.287 212.08ZM433.239 232.469L450.582 239.301L449.917 240.989L432.574 234.156L433.239 232.469ZM450.185 239.144L467.528 245.977L466.863 247.665L449.52 240.832L450.185 239.144ZM467.131 245.82L484.474 252.653L483.809 254.341L466.466 247.508L467.131 245.82ZM484.077 252.496L501.42 259.329L500.755 261.017L483.412 254.184L484.077 252.496ZM501.022 259.172L518.365 266.004L517.7 267.692L500.357 260.86L501.022 259.172ZM517.968 265.848L535.311 272.68L534.646 274.368L517.303 267.536L517.968 265.848ZM534.914 272.524L552.257 279.356L551.592 281.044L534.249 274.212L534.914 272.524ZM551.86 279.2L569.202 286.032L568.538 287.72L551.195 280.888L551.86 279.2ZM568.805 285.876L586.148 292.708L585.483 294.396L568.14 287.564L568.805 285.876ZM585.751 292.552L603.094 299.384L602.429 301.072L585.086 294.239L585.751 292.552ZM602.697 299.227L620.04 306.06L619.375 307.748L602.032 300.915L602.697 299.227ZM619.643 305.903L636.985 312.736L636.32 314.424L618.978 307.591L619.643 305.903ZM642.503 304.166L649.701 307.002L647.042 313.753L639.843 310.917L642.503 304.166Z" fill="white"/>
</svg>
